<?xml version="1.0" standalone="no"?>
<!DOCTYPE svg PUBLIC "-//W3C//DTD SVG 20010904//EN"
 "http://www.w3.org/TR/2001/REC-SVG-20010904/DTD/svg10.dtd">
<svg version="1.0" xmlns="http://www.w3.org/2000/svg"
 width="460.000000pt" height="460.000000pt" viewBox="0 0 460.000000 460.000000"
 preserveAspectRatio="xMidYMid meet">

<g transform="translate(0.000000,460.000000) scale(0.100000,-0.100000)"
fill="#000000" stroke="none">
<path d="M1410 4592 c0 -4 4 -12 9 -17 5 -6 12 -26 15 -45 3 -19 14 -42 26
-52 14 -11 16 -18 8 -21 -7 -3 -4 -6 7 -6 12 -1 16 -4 9 -9 -16 -10 -26 -60
-14 -67 8 -5 7 -11 -1 -21 -9 -11 -8 -14 9 -14 22 0 37 -36 18 -44 -7 -3 -3
-12 12 -24 30 -27 28 -32 -8 -22 -28 8 -29 7 -19 -11 5 -11 14 -17 19 -14 4 3
10 -1 13 -7 3 -9 14 -3 31 17 121 138 166 184 197 199 20 10 43 31 53 47 10
17 26 29 39 30 40 2 82 8 107 15 14 4 33 8 42 9 23 2 25 5 33 38 l7 27 -306 0
c-168 0 -306 -4 -306 -8z"/>
<path d="M2136 4581 c10 -10 22 -17 27 -14 4 2 12 1 18 -3 6 -3 29 -8 51 -9
21 -2 45 -8 52 -14 7 -6 15 -8 19 -5 3 3 15 0 27 -6 12 -6 76 -14 143 -17 67
-3 130 -9 139 -14 9 -5 30 -9 47 -9 16 0 33 -4 36 -10 3 -5 14 -10 23 -10 9 0
30 -7 46 -15 15 -8 36 -15 46 -15 10 0 20 -3 22 -7 2 -5 32 -28 68 -52 124
-84 297 -280 336 -381 9 -25 22 -52 29 -60 11 -14 25 -42 31 -65 1 -5 12 -37
23 -70 36 -105 79 -294 52 -230 -5 12 -8 -8 -8 -56 0 -42 -4 -95 -8 -120 -6
-36 -5 -42 6 -32 8 6 20 32 28 57 7 25 17 46 21 46 5 0 11 8 14 18 3 9 4 -4 3
-30 -1 -27 1 -48 5 -48 5 0 8 -10 7 -22 0 -22 -1 -22 -9 -3 -7 16 -9 11 -9
-20 0 -24 3 -35 7 -27 6 9 12 6 20 -13 9 -19 9 -25 -1 -25 -8 0 -7 -4 3 -10
22 -14 7 -21 -26 -11 -16 5 -58 14 -94 20 -71 14 -110 33 -110 56 0 8 -9 15
-19 15 -11 0 -22 4 -25 8 -10 17 -252 50 -366 51 -8 0 -44 0 -80 1 -36 0 -76
-1 -90 -3 -66 -12 -121 -28 -152 -46 -18 -11 -49 -21 -68 -23 -27 -3 -36 -9
-38 -26 -2 -12 -8 -19 -14 -16 -6 4 -13 2 -17 -3 -26 -38 -301 -97 -301 -64 0
5 -10 13 -22 17 -13 4 -39 19 -58 34 -34 27 -70 47 -120 68 -32 14 -89 21
-225 28 -96 4 -117 3 -155 -14 -71 -32 -83 -43 -71 -73 l9 -26 124 5 c68 2
138 0 156 -4 22 -6 -21 -9 -135 -10 -93 -1 -188 -6 -213 -12 -50 -12 -59 -9
-40 12 6 9 10 21 7 28 -2 7 5 31 16 53 18 34 22 68 28 220 7 171 17 232 64
419 7 27 7 28 -14 16 -27 -14 -81 -98 -106 -162 -10 -26 -20 -46 -24 -44 -3 2
-6 -12 -6 -32 0 -21 -4 -43 -9 -49 -4 -7 -6 -13 -2 -13 4 0 0 -10 -9 -23 -23
-36 -48 -362 -31 -414 5 -14 16 -23 29 -24 12 0 -7 -9 -41 -19 -35 -11 -95
-31 -133 -45 l-69 -27 0 -58 c0 -83 9 -120 30 -120 27 0 36 -17 65 -125 34
-132 45 -163 71 -205 52 -84 111 -115 248 -130 103 -12 326 0 397 21 50 15 59
25 113 123 76 139 99 192 121 269 19 65 44 88 100 90 45 1 53 -8 112 -123 80
-157 133 -238 177 -272 22 -18 47 -40 54 -50 7 -9 18 -23 25 -30 7 -7 14 -36
16 -64 2 -46 -1 -54 -25 -73 -15 -11 -33 -21 -41 -21 -20 0 -94 60 -88 70 3 5
-3 14 -14 19 -27 15 -39 14 -18 -2 15 -10 8 -12 -40 -11 -43 1 -71 -5 -106
-22 -36 -18 -53 -21 -71 -14 -13 5 -33 6 -45 3 -12 -3 -21 -1 -21 5 0 14 -45
24 -75 16 -20 -5 -25 -12 -25 -38 0 -18 -3 -36 -7 -40 -16 -15 -10 -40 15 -63
26 -24 29 -25 142 -18 63 4 125 11 138 16 14 5 30 5 40 0 18 -9 85 -16 137
-13 64 4 155 130 143 197 -3 14 -1 25 4 25 5 0 7 4 4 9 -3 5 103 11 247 14
262 5 308 11 393 55 70 36 115 116 142 252 6 30 16 73 21 95 l9 40 2 -35 c1
-19 4 -27 7 -17 2 9 9 15 14 12 5 -4 9 -1 9 5 0 6 4 9 10 5 5 -3 6 -13 3 -22
-5 -13 0 -15 30 -11 19 2 34 1 32 -2 -2 -3 2 -19 10 -35 14 -31 37 -161 40
-227 2 -35 28 -89 37 -78 2 3 16 25 32 49 20 32 31 40 39 32 13 -13 41 -15 32
-2 -3 5 -1 12 4 15 15 10 10 67 -9 108 -19 39 -11 61 19 51 11 -4 10 -1 -4 10
-20 16 -20 16 6 17 16 0 37 13 57 36 35 39 42 67 15 57 -13 -5 -15 -2 -10 11
4 11 3 15 -4 11 -5 -4 -8 -12 -6 -18 2 -7 -3 -17 -12 -24 -21 -16 -39 -17 -23
-1 17 17 15 25 -8 31 -32 8 -25 51 14 95 19 21 37 49 41 63 3 13 21 40 39 59
29 31 33 44 42 122 6 59 6 89 -1 92 -5 2 -4 5 3 5 8 1 12 23 12 76 0 43 4 75
10 75 6 0 9 3 8 8 -1 4 4 18 11 30 11 21 9 31 -11 78 -12 29 -29 54 -35 54
-15 0 -16 6 -15 75 1 35 -5 56 -17 70 -10 11 -21 33 -25 48 -7 28 -128 221
-146 232 -5 3 -30 36 -54 73 -25 37 -51 74 -58 82 -24 29 -70 60 -79 54 -5 -3
-8 -1 -7 3 3 9 -228 243 -240 243 -3 0 3 -10 14 -22 l19 -23 -26 23 c-28 24
-96 32 -83 10 6 -10 4 -10 -7 0 -10 9 -126 12 -508 12 -483 0 -494 0 -475 -19z
m1085 -48 c13 -16 12 -17 -3 -4 -17 13 -22 21 -14 21 2 0 10 -8 17 -17z
m-1954 -910 c-3 -10 -5 -2 -5 17 0 19 2 27 5 18 2 -10 2 -26 0 -35z m2593 -32
c0 -45 -6 -37 -14 19 -4 31 -3 40 4 30 5 -8 10 -30 10 -49z m-653 -383 c-3 -8
-6 -5 -6 6 -1 11 2 17 5 13 3 -3 4 -12 1 -19z m-1744 5 c-13 -2 -23 -9 -23
-14 0 -5 -8 -9 -17 -10 -15 0 -15 -2 2 -9 17 -7 17 -9 3 -9 -10 -1 -17 -4 -16
-8 1 -5 -6 -22 -15 -40 -20 -38 -21 -61 -5 -100 6 -15 10 -34 9 -41 -1 -7 12
-17 28 -23 17 -6 31 -15 31 -19 0 -4 15 -11 34 -14 19 -4 39 -13 46 -21 7 -8
23 -15 36 -15 13 0 34 -11 46 -25 21 -25 26 -26 120 -23 54 2 98 6 98 11 0 4
15 7 34 7 19 0 42 7 50 16 9 8 16 14 16 12 0 -35 -28 -134 -52 -184 -37 -78
-64 -98 -171 -131 -71 -22 -102 -25 -232 -26 -120 -1 -156 2 -180 15 -33 18
-72 57 -98 100 -21 34 -53 154 -62 232 -8 66 -1 75 50 76 22 0 26 3 16 9 -12
8 -8 11 14 17 26 6 27 8 10 15 -17 6 -17 8 -3 8 9 1 21 -5 25 -12 4 -7 20 -20
35 -30 l27 -17 6 55 c7 54 -8 148 -27 172 -12 15 -1 20 52 26 49 5 140 5 113
0z m-185 -70 c11 -27 24 -61 28 -76 6 -24 4 -28 -12 -26 -11 2 -25 0 -32 -5
-16 -10 -42 11 -42 34 0 10 -13 23 -30 30 -44 18 -39 44 15 73 44 24 49 22 73
-30z m2354 -10 c36 -34 38 -73 4 -73 -14 0 -28 -4 -31 -10 -3 -5 -13 -10 -22
-10 -9 0 -14 3 -10 6 3 4 0 13 -8 21 -8 8 -14 24 -14 36 l2 22 4 -22 c2 -12
11 -24 18 -27 12 -4 12 -2 3 13 -13 21 -3 71 14 71 7 0 25 -12 40 -27z m-912
-53 c0 -6 10 -15 23 -20 l22 -9 -22 0 c-13 -1 -21 -6 -19 -13 3 -7 7 -28 10
-45 5 -28 2 -33 -14 -33 -11 0 -24 9 -30 20 -6 11 -15 18 -19 16 -12 -8 -5 44
10 71 12 23 39 32 39 13z m-1055 -130 c18 -19 17 -20 -6 -21 -65 -3 -105 16
-115 57 -5 21 -1 31 22 49 16 13 32 21 36 19 4 -2 10 1 14 8 5 7 12 -9 19 -40
7 -29 20 -61 30 -72z m1130 110 c-3 -5 -11 -10 -16 -10 -6 0 -7 5 -4 10 3 6
11 10 16 10 6 0 7 -4 4 -10z m30 1 c3 -5 1 -12 -5 -16 -5 -3 -10 1 -10 9 0 18
6 21 15 7z m-460 -63 c5 -4 0 -6 -12 -6 -13 1 -19 7 -16 15 3 8 8 10 12 6 3
-4 10 -11 16 -15z m904 -40 c11 -1 13 -20 9 -92 -7 -126 -38 -190 -109 -227
-98 -50 -457 -64 -589 -24 -87 27 -105 50 -173 218 -28 69 -34 93 -26 110 8
19 9 18 4 -6 -4 -19 -2 -26 5 -22 5 3 10 2 10 -3 0 -5 24 -17 54 -27 48 -16
60 -17 94 -6 30 10 48 11 73 2 49 -16 237 -18 279 -3 19 6 63 19 98 27 35 8
70 22 78 30 9 8 27 15 42 16 15 0 36 4 47 9 11 4 36 6 55 3 19 -2 41 -5 49 -5z
m-899 -8 c0 -5 -2 -10 -4 -10 -3 0 -8 5 -11 10 -3 6 -1 10 4 10 6 0 11 -4 11
-10z m505 -60 c3 -5 -1 -10 -10 -10 -9 0 -13 5 -10 10 3 6 8 10 10 10 2 0 7
-4 10 -10z"/>
<path d="M1230 3060 c0 -5 5 -10 11 -10 5 0 7 5 4 10 -3 6 -8 10 -11 10 -2 0
-4 -4 -4 -10z"/>
<path d="M1376 4572 c-2 -4 7 -21 20 -37 18 -23 24 -26 24 -12 0 19 -37 61
-44 49z"/>
<path d="M1380 4292 c0 -5 15 -13 34 -19 28 -9 33 -8 29 3 -2 7 -11 10 -18 8
-7 -3 -16 -1 -20 5 -7 13 -25 15 -25 3z"/>
<path d="M1430 4060 c-9 -6 -10 -10 -3 -10 6 0 15 5 18 10 8 12 4 12 -15 0z"/>
<path d="M1197 3543 c-4 -3 -7 -11 -7 -17 0 -6 5 -5 12 2 6 6 9 14 7 17 -3 3
-9 2 -12 -2z"/>
<path d="M3411 3444 c0 -11 3 -14 6 -6 3 7 2 16 -1 19 -3 4 -6 -2 -5 -13z"/>
<path d="M4585 3150 c3 -5 8 -10 11 -10 2 0 4 5 4 10 0 6 -5 10 -11 10 -5 0
-7 -4 -4 -10z"/>
<path d="M4592 3060 c0 -14 2 -19 5 -12 2 6 2 18 0 25 -3 6 -5 1 -5 -13z"/>
<path d="M3867 2553 c-18 -17 -3 -45 46 -84 44 -37 117 -103 189 -172 27 -26
333 -295 387 -341 25 -21 48 -41 51 -45 3 -3 18 -15 33 -24 l28 -18 -3 38 c-2
31 -11 43 -49 73 -57 43 -233 186 -251 203 -7 6 -53 46 -102 87 -50 41 -99 84
-111 95 -11 11 -39 36 -60 55 -22 19 -65 58 -96 87 -31 29 -59 50 -62 46z"/>
<path d="M1169 2393 c-62 -60 -167 -160 -233 -223 -66 -63 -197 -189 -290
-280 -93 -91 -197 -192 -231 -225 -34 -33 -141 -139 -238 -235 -160 -158 -177
-178 -177 -208 0 -33 12 -23 308 274 170 170 371 371 448 446 76 76 195 195
264 265 69 71 162 159 207 197 52 43 80 73 76 82 -3 8 -9 14 -13 14 -4 0 -59
-48 -121 -107z"/>
<path d="M3576 2229 c-3 -8 -25 -97 -50 -199 -44 -179 -75 -272 -97 -286 -6
-3 -8 -13 -5 -21 4 -9 1 -13 -6 -10 -8 2 -12 15 -10 30 2 15 -1 27 -5 27 -14
0 -74 -61 -107 -108 -17 -23 -33 -42 -38 -42 -4 0 -8 -6 -8 -14 0 -7 -27 -37
-61 -67 -73 -65 -87 -74 -119 -84 -13 -4 -33 -18 -43 -31 -10 -13 -25 -24 -32
-24 -8 0 -16 -8 -19 -17 -7 -21 -67 -53 -99 -53 -34 0 -65 -26 -72 -61 -6 -28
-10 -30 -36 -25 -15 3 -31 1 -34 -4 -4 -6 -11 -8 -16 -5 -5 4 -16 -1 -25 -9
-10 -11 -34 -16 -71 -16 -38 0 -62 -5 -74 -16 -36 -33 -157 -49 -261 -35 -31
4 -55 4 -52 -1 7 -11 -4 -10 -46 2 -29 8 -37 7 -48 -7 -11 -16 -14 -16 -22 -3
-8 12 -12 13 -19 2 -9 -15 -81 -7 -92 10 -3 5 -13 2 -22 -6 -18 -19 -37 -21
-37 -5 0 13 -105 8 -117 -5 -8 -8 135 -146 151 -146 11 0 46 -40 46 -52 0 -5
11 -13 24 -19 13 -6 27 -20 29 -30 3 -10 17 -23 31 -29 14 -5 26 -14 26 -20 0
-5 11 -10 25 -10 14 0 34 -9 45 -20 14 -14 33 -20 65 -20 25 0 45 -4 45 -9 0
-13 57 -34 78 -29 10 3 23 -1 30 -8 26 -28 250 12 274 49 6 9 10 9 16 0 11
-17 78 31 94 68 7 15 29 38 49 51 36 22 67 78 54 97 -6 11 34 43 46 35 4 -2
10 10 14 26 8 38 37 65 93 90 24 11 41 24 37 30 -3 5 6 15 20 20 14 5 23 14
20 20 -3 5 5 21 19 34 14 13 26 28 26 35 0 6 9 11 20 11 11 0 20 7 20 15 0 9
9 15 25 15 23 0 25 -4 25 -44 0 -26 -6 -48 -15 -56 -8 -7 -16 -31 -16 -54 l-2
-41 -6 40 c-6 37 -7 34 -14 -35 -4 -41 -12 -79 -17 -84 -6 -6 -10 -18 -10 -27
0 -9 -7 -19 -15 -22 -8 -4 -21 -22 -29 -42 -8 -19 -21 -35 -28 -35 -22 0 -48
-36 -35 -49 15 -15 -11 -42 -37 -39 -21 3 -41 -25 -51 -74 -4 -19 -12 -28 -25
-28 -17 0 -20 -7 -20 -40 0 -44 -17 -90 -34 -90 -11 0 -46 -35 -46 -46 0 -3 7
-12 15 -20 20 -21 19 -42 -2 -47 -11 -2 -2 -8 25 -16 25 -7 42 -18 42 -26 0
-8 5 -15 10 -15 6 0 8 -11 4 -25 -4 -15 -2 -25 5 -25 6 0 11 -7 11 -15 0 -9
-6 -12 -15 -9 -8 4 -15 1 -15 -5 0 -6 6 -11 14 -11 14 0 30 -29 21 -38 -3 -3
-5 0 -5 6 0 17 -17 15 -24 -4 -3 -8 -2 -12 4 -9 6 3 10 3 10 -2 0 -20 -48 -82
-123 -160 -45 -46 -88 -95 -96 -108 -8 -13 -31 -30 -50 -38 -32 -13 71 -15
927 -16 l962 -1 0 365 0 364 -42 29 c-201 137 -343 197 -493 208 -111 8 -133
18 -190 84 -27 32 -57 60 -65 63 -22 9 83 -1 255 -23 83 -11 222 -29 310 -40
88 -11 175 -23 193 -26 l32 -6 0 215 0 215 -32 29 c-17 15 -57 53 -89 83 -31
30 -101 96 -155 145 -134 123 -169 157 -320 303 -239 230 -234 227 -276 213
-31 -10 -54 -7 -125 14 -15 5 -24 3 -27 -6z m-156 -539 c0 -5 -5 -10 -11 -10
-5 0 -7 5 -4 10 3 6 8 10 11 10 2 0 4 -4 4 -10z m-21 -37 c0 -5 -4 -17 -9 -28
-8 -17 -8 -16 -7 8 1 15 5 27 9 27 4 0 8 -3 7 -7z m-39 -263 c0 -5 -2 -10 -4
-10 -3 0 -8 5 -11 10 -3 6 -1 10 4 10 6 0 11 -4 11 -10z m-40 -60 c0 -5 -7
-10 -16 -10 -8 0 -12 5 -9 10 3 6 10 10 16 10 5 0 9 -4 9 -10z m-443 -16 c-3
-3 -12 -4 -19 -1 -8 3 -5 6 6 6 11 1 17 -2 13 -5z"/>
<path d="M1197 2048 c-80 -79 -159 -154 -176 -168 -16 -14 -30 -29 -31 -34 0
-10 -98 -106 -107 -106 -8 0 -167 -165 -288 -297 -49 -54 -187 -196 -305 -316
-118 -119 -217 -220 -220 -223 -7 -8 68 3 280 41 102 18 230 41 285 49 55 9
208 36 340 60 214 40 250 49 335 89 52 24 117 52 143 63 38 15 55 30 84 74 20
30 47 67 61 82 18 20 22 31 15 40 -6 7 -34 58 -62 112 -77 150 -128 322 -172
581 -14 80 -18 95 -29 95 -4 0 -73 -64 -153 -142z"/>
<path d="M2188 2029 c-2 -6 -26 -12 -53 -15 -48 -5 -90 -28 -79 -45 3 -5 1 -9
-5 -9 -5 0 -11 5 -13 11 -3 9 -9 9 -25 1 -11 -6 -37 -10 -57 -9 -19 2 -37 1
-38 -3 -2 -3 -36 -21 -75 -40 -40 -19 -73 -37 -73 -40 1 -38 121 -46 185 -12
34 18 64 23 175 28 74 3 168 12 207 21 80 16 131 14 241 -13 52 -12 79 -15 90
-8 10 6 35 9 57 8 54 -3 115 13 115 31 0 21 -72 76 -91 70 -18 -6 -184 7 -337
27 l-92 11 -28 -26 c-35 -33 -46 -34 -77 -3 -13 13 -25 20 -27 15z"/>
<path d="M2171 1723 c11 -3 15 -11 12 -23 -7 -28 51 -62 84 -49 13 5 35 11 49
13 33 6 36 10 39 38 3 23 1 23 -99 24 -55 0 -94 -1 -85 -3z"/>
<path d="M1615 1345 c-14 -43 -17 -50 -22 -37 -11 29 -33 -2 -36 -53 -1 -12
-9 -20 -18 -19 -10 1 -23 -13 -32 -32 -15 -30 -15 -33 0 -27 13 5 14 3 3 -16
-6 -13 -14 -20 -18 -17 -8 8 -62 -44 -62 -60 0 -7 -6 -15 -12 -18 -10 -5 -10
-7 0 -12 6 -3 12 -13 12 -21 0 -12 -3 -13 -15 -3 -21 17 -38 2 -30 -27 5 -20
3 -24 -9 -20 -8 3 -17 1 -19 -6 -2 -7 -8 -9 -12 -5 -4 4 1 20 11 37 10 17 14
34 10 38 -5 4 -11 2 -13 -4 -5 -15 -33 -18 -33 -4 0 25 -195 -24 -241 -60 -20
-16 -15 -15 31 4 30 13 73 24 95 25 39 3 39 2 15 -11 -14 -7 -24 -19 -22 -25
1 -7 -2 -12 -8 -12 -5 0 -20 -11 -34 -25 -14 -14 -27 -25 -30 -25 -2 0 -27
-16 -56 -35 -29 -19 -48 -35 -44 -35 4 0 -11 -12 -34 -27 -23 -15 -42 -33 -42
-39 0 -6 -17 -23 -37 -37 -21 -14 -61 -48 -90 -76 -28 -28 -57 -51 -63 -51 -6
0 -9 -4 -6 -8 3 -5 -6 -15 -19 -22 -14 -7 -25 -17 -25 -22 0 -5 -16 -24 -35
-44 -19 -19 -35 -37 -35 -39 0 -3 -21 -27 -47 -53 -128 -130 -233 -241 -233
-246 0 -3 -13 -18 -29 -33 -15 -16 -39 -50 -52 -78 -12 -27 -25 -53 -27 -57
-2 -4 366 -8 817 -8 l821 0 0 32 c-1 18 -12 80 -26 138 -14 58 -27 117 -27
132 -1 14 -5 24 -9 22 -9 -6 2 28 11 36 18 15 51 102 56 145 6 49 -12 175 -25
175 -4 0 -13 19 -20 43 -8 23 -20 51 -27 63 -7 11 -17 40 -22 65 -5 24 -16 71
-25 104 -8 33 -20 107 -26 165 -12 108 -18 124 -77 198 -36 45 -51 51 -58 27z
m-199 -382 c-10 -10 -19 5 -10 18 6 11 8 11 12 0 2 -7 1 -15 -2 -18z m-36 -3
c0 -5 -4 -10 -10 -10 -5 0 -10 5 -10 10 0 6 5 10 10 10 6 0 10 -4 10 -10z
m-70 -51 c-7 -11 -14 -19 -16 -16 -7 7 7 37 17 37 6 0 5 -9 -1 -21z m-50 -63
c0 -3 -4 -8 -10 -11 -5 -3 -10 -1 -10 4 0 6 5 11 10 11 6 0 10 -2 10 -4z m-20
-34 c0 -5 -9 -17 -20 -27 -11 -10 -20 -24 -20 -31 0 -7 -6 -15 -12 -17 -9 -4
-9 -8 -3 -14 6 -4 11 -30 13 -58 2 -27 10 -60 18 -72 12 -19 12 -24 -2 -37 -8
-9 -20 -16 -25 -16 -5 0 -8 -4 -6 -8 5 -16 -26 -78 -46 -93 -47 -34 -105 -31
-91 5 6 15 7 15 18 1 15 -21 45 -10 39 14 -2 10 3 25 11 34 17 17 22 32 7 23
-4 -3 -7 5 -6 17 1 12 4 33 5 47 2 18 4 20 7 8 2 -10 11 -18 19 -18 14 0 18
16 15 53 -1 9 5 20 13 23 9 3 16 13 16 21 0 10 -6 13 -16 9 -9 -3 -20 -6 -25
-6 -5 0 -13 -10 -18 -22 l-8 -22 -5 22 c-4 13 0 28 8 36 8 8 14 17 14 21 0 3
5 11 10 18 6 7 24 28 40 47 16 19 30 38 30 43 0 10 20 9 20 -1z m49 -47 c0 -5
-4 -3 -9 5 -5 8 -9 22 -9 30 0 16 17 -16 18 -35z m-29 25 c0 -5 -4 -10 -10
-10 -5 0 -10 5 -10 10 0 6 5 10 10 10 6 0 10 -4 10 -10z m95 -30 c-3 -5 -12
-10 -18 -10 -7 0 -6 4 3 10 19 12 23 12 15 0z m-103 -15 c0 -5 -5 -11 -11 -13
-6 -2 -11 4 -11 13 0 9 5 15 11 13 6 -2 11 -8 11 -13z m122 -11 c3 -8 2 -12
-4 -9 -6 3 -10 10 -10 16 0 14 7 11 14 -7z m-145 -41 c0 -5 -4 -17 -9 -28 -8
-18 -9 -17 -9 8 -1 15 4 27 9 27 6 0 10 -3 9 -7z"/>
<path d="M1160 695 c-8 -9 -8 -15 -2 -15 12 0 26 19 19 26 -2 2 -10 -2 -17
-11z"/>
<path d="M1120 540 c0 -5 7 -10 16 -10 8 0 12 5 9 10 -3 6 -10 10 -16 10 -5 0
-9 -4 -9 -10z"/>
<path d="M1440 1175 c-7 -8 -20 -15 -29 -15 -9 0 -21 -4 -26 -9 -6 -5 -27 -14
-47 -21 -21 -6 -38 -16 -38 -22 0 -6 -7 -7 -16 -4 -8 3 -12 2 -9 -4 3 -6 -3
-10 -14 -10 -12 0 -21 -4 -21 -10 0 -6 9 -6 25 0 14 5 25 6 25 1 0 -4 6 -8 13
-9 6 -1 30 -4 52 -7 37 -6 42 -4 55 22 8 15 23 40 33 56 10 15 15 27 10 27 -4
0 -1 5 7 10 8 5 10 10 4 10 -6 0 -17 -7 -24 -15z"/>
<path d="M1810 1170 c0 -5 5 -10 11 -10 5 0 7 5 4 10 -3 6 -8 10 -11 10 -2 0
-4 -4 -4 -10z"/>
<path d="M870 993 c-69 -14 -132 -31 -141 -39 -9 -8 -19 -11 -22 -8 -4 4 -14
1 -23 -7 -10 -8 -19 -13 -21 -11 -10 7 -23 0 -17 -9 4 -7 26 -9 58 -5 28 3 76
8 106 11 123 12 143 16 168 32 15 10 36 23 46 29 32 17 31 34 -1 33 -15 0 -84
-12 -153 -26z"/>
<path d="M1031 953 c-8 -3 -22 -13 -32 -21 -10 -9 -40 -25 -66 -36 -43 -18
-73 -20 -288 -22 -187 -2 -251 -6 -290 -18 -27 -9 -95 -21 -150 -27 -55 -5
-104 -15 -110 -21 -7 -8 -3 -9 15 -4 14 4 63 11 110 16 47 4 92 11 100 13 8 3
29 8 46 11 29 5 32 3 36 -24 3 -17 1 -30 -4 -30 -4 0 -8 7 -8 15 0 8 -5 15
-10 15 -6 0 -10 -8 -8 -17 2 -10 -7 -22 -22 -30 -14 -7 -20 -13 -13 -13 6 0 9
-8 6 -19 -5 -20 -27 -34 -52 -35 -29 -2 -23 -26 6 -26 31 1 63 20 63 40 0 7 8
10 19 7 10 -2 25 0 34 5 11 6 25 5 38 -3 20 -10 21 -9 17 15 -6 29 10 46 23
25 6 -10 9 -9 14 6 4 11 10 29 15 40 8 19 9 19 9 -2 1 -31 15 -29 30 3 8 19
16 24 29 19 26 -11 47 -11 45 0 -1 6 39 11 98 13 114 3 200 26 272 71 26 17
47 33 47 36 0 6 1 6 -19 -2z m-599 -115 c-6 -6 -15 -8 -19 -4 -4 4 -1 11 7 16
19 12 27 3 12 -12z m48 18 c0 -3 -4 -8 -10 -11 -5 -3 -10 -1 -10 4 0 6 5 11
10 11 6 0 10 -2 10 -4z m53 -3 c-7 -2 -21 -2 -30 0 -10 3 -4 5 12 5 17 0 24
-2 18 -5z"/>
<path d="M560 800 c0 -5 5 -10 10 -10 6 0 10 5 10 10 0 6 -4 10 -10 10 -5 0
-10 -4 -10 -10z"/>
<path d="M629 805 c-1 -3 -2 -11 -3 -17 -1 -7 -11 -13 -23 -12 -13 0 -24 -7
-27 -18 -4 -17 1 -19 32 -16 20 2 35 6 32 9 -3 3 0 12 6 20 9 11 9 17 -2 27
-8 7 -15 10 -15 7z m-2 -51 c-3 -3 -12 -4 -19 -1 -8 3 -5 6 6 6 11 1 17 -2 13
-5z"/>
<path d="M20 780 c0 -5 5 -10 10 -10 6 0 10 5 10 10 0 6 -4 10 -10 10 -5 0
-10 -4 -10 -10z"/>
<path d="M506 751 c-9 -14 31 -43 51 -38 16 4 15 6 -5 12 -14 5 -21 13 -18 21
6 15 -19 20 -28 5z"/>
<path d="M444 699 c-3 -5 -9 -7 -14 -4 -4 3 -13 -2 -20 -10 -10 -12 -6 -13 24
-8 28 4 37 2 42 -11 9 -25 -2 -31 -52 -29 -36 1 -44 -2 -42 -15 2 -12 -5 -16
-33 -16 -24 0 -35 -4 -32 -12 9 -24 -89 -40 -108 -18 -6 8 -17 14 -25 14 -19
0 -27 -19 -15 -34 14 -17 2 -29 -15 -15 -8 6 -30 9 -49 7 -25 -3 -35 0 -35 10
0 7 5 10 10 7 6 -4 10 9 9 32 0 21 -3 32 -6 26 -8 -21 -25 -14 -18 7 7 21 -9
28 -20 10 -10 -17 -24 -2 -18 20 3 11 1 20 -5 20 -19 0 -22 -47 -22 -362 0
-296 1 -318 18 -318 9 0 31 12 47 25 54 45 183 135 193 135 6 0 22 14 36 31
14 17 26 28 26 25 0 -5 52 47 81 81 8 11 14 24 12 30 -3 7 5 18 16 25 12 7 21
18 21 25 0 7 10 18 23 24 12 7 26 18 30 26 5 7 12 11 18 8 5 -4 12 2 16 12 7
20 101 112 107 105 3 -2 2 5 -1 17 -3 11 -9 18 -14 15 -5 -3 -7 -10 -4 -15 5
-8 -16 -14 -38 -10 -4 1 -10 -6 -14 -14 -5 -14 -8 -14 -26 2 -11 10 -17 12
-13 6 5 -10 -6 -13 -43 -13 -31 0 -51 -4 -51 -11 0 -7 -10 -9 -27 -5 -16 5
-29 3 -33 -4 -11 -18 -45 -3 -58 24 -9 21 -8 25 10 29 12 4 30 2 40 -4 14 -8
26 -4 54 17 29 23 39 26 54 16 17 -10 18 -8 17 21 -2 26 2 32 18 33 11 1 26 2
33 3 7 1 10 6 6 12 -3 6 -17 8 -29 5 -13 -3 -27 -2 -30 4 -3 5 -1 10 5 10 6 0
9 4 6 9 -7 11 -55 11 -62 0z m-396 -107 c6 -18 -15 -14 -22 4 -4 10 -1 14 6
12 6 -2 14 -10 16 -16z m272 -72 c0 -5 -8 -10 -17 -10 -15 0 -16 2 -3 10 19
12 20 12 20 0z"/>
<path d="M236 645 c4 -8 8 -15 10 -15 2 0 4 7 4 15 0 8 -4 15 -10 15 -5 0 -7
-7 -4 -15z"/>
<path d="M235 590 c3 -5 8 -10 11 -10 2 0 4 5 4 10 0 6 -5 10 -11 10 -5 0 -7
-4 -4 -10z"/>
<path d="M548 593 c7 -3 16 -2 19 1 4 3 -2 6 -13 5 -11 0 -14 -3 -6 -6z"/>
<path d="M211 92 c-24 -13 -54 -35 -66 -48 -12 -13 -27 -24 -34 -24 -6 0 -11
-4 -11 -10 0 -6 27 -10 60 -10 l60 0 30 53 c16 28 30 55 30 58 0 12 -27 5 -69
-19z"/>
</g>
</svg>
